<svg width="33" height="31" viewBox="0 0 33 31" fill="none" xmlns="http://www.w3.org/2000/svg">
<path fill-rule="evenodd" clip-rule="evenodd" d="M17.3238 0.933487C17.1439 0.575778 16.7728 0.349314 16.3665 0.349314C15.9602 0.349314 15.5891 0.575778 15.4092 0.933487L11.0562 9.59225L1.32248 10.9807C0.920366 11.0381 0.586292 11.3146 0.460726 11.694C0.33516 12.0734 0.43988 12.4898 0.730854 12.7683L7.77422 19.5082L6.11151 29.0251C6.04282 29.4182 6.20745 29.8156 6.53619 30.05C6.86492 30.2845 7.30075 30.3154 7.66041 30.1298L16.3665 25.6365L25.0726 30.1298C25.4322 30.3154 25.8681 30.2845 26.1968 30.05C26.5255 29.8156 26.6902 29.4182 26.6215 29.0251L24.9588 19.5082L32.0021 12.7683C32.2931 12.4898 32.3978 12.0734 32.2723 11.694C32.1467 11.3146 31.8126 11.0381 31.4105 10.9807L21.6768 9.59225L17.3238 0.933487Z" fill="#ED8B00"/>
</svg>
